<svg xmlns="http://www.w3.org/2000/svg" xmlns:xlink="http://www.w3.org/1999/xlink" version="1.1" x="0px" y="0px" viewBox="0 0 100 125" enable-background="new 0 0 100 100" xml:space="preserve"><path d="M50,95c24.813,0,45-20.188,45-45C95,25.187,74.813,5,50,5C25.187,5,5,25.187,5,50C5,74.813,25.187,95,50,95z M50,9.737  c22.201,0,40.263,18.062,40.263,40.263S72.201,90.263,50,90.263S9.737,72.201,9.737,50S27.799,9.737,50,9.737z"/><path d="M50,52.368h27.568c1.308,0,2.368-1.06,2.368-2.368c0-1.308-1.061-2.369-2.368-2.369h-25.2v-27.48  c0-1.308-1.06-2.368-2.368-2.368c-1.308,0-2.369,1.06-2.369,2.368V50C47.631,51.309,48.692,52.368,50,52.368z"/><text x="0" y="115" fill="#000000" font-size="5px" font-weight="bold" font-family="'Helvetica Neue', Helvetica, Arial-Unicode, Arial, Sans-serif">Created by Milinda Courey</text><text x="0" y="120" fill="#000000" font-size="5px" font-weight="bold" font-family="'Helvetica Neue', Helvetica, Arial-Unicode, Arial, Sans-serif">from the Noun Project</text></svg>