<svg xmlns="http://www.w3.org/2000/svg" data-name="Layer 1" viewBox="0 0 100 125" x="0px" y="0px"><title>A55</title><path d="M59.78255,34.70785a2.50172,2.50172,0,0,0-3.13476.0127l-6.98,5.59277a23.49557,23.49557,0,0,0-3.7876-1.57617l-.9917-8.88965A2.50148,2.50148,0,0,0,42.682,27.62582a34.49861,34.49861,0,0,0-7.77491,0A2.50375,2.50375,0,0,0,32.701,29.8475l-.9917,8.88965a23.49962,23.49962,0,0,0-3.7876,1.57617l-6.979-5.59277a2.50335,2.50335,0,0,0-3.13867-.01074,34.26305,34.26305,0,0,0-5.50391,5.50488,2.50394,2.50394,0,0,0,.01025,3.13769l5.59278,6.9795A23.424,23.424,0,0,0,16.328,54.119l-8.89209.99218a2.50223,2.50223,0,0,0-2.21924,2.20606,34.21356,34.21356,0,0,0-.00048,7.77246,2.50342,2.50342,0,0,0,2.22119,2.209l8.89062.99121a23.47085,23.47085,0,0,0,1.5752,3.78809l-5.59082,6.97754a2.52963,2.52963,0,0,0-.01221,3.13867,34.19473,34.19473,0,0,0,5.50342,5.50391,2.50009,2.50009,0,0,0,3.13818-.00977l6.98-5.5918a23.51839,23.51839,0,0,0,3.78711,1.5752l.99268,8.89355a2.50164,2.50164,0,0,0,2.206,2.21778,34.1967,34.1967,0,0,0,7.77491,0,2.50092,2.50092,0,0,0,2.206-2.2207l.99219-8.89063a23.4492,23.4492,0,0,0,3.78711-1.5752l6.979,5.5918a2.50268,2.50268,0,0,0,3.13818.01074,34.23841,34.23841,0,0,0,5.50293-5.502,2.53166,2.53166,0,0,0-.00879-3.13965L59.68636,72.078a23.43419,23.43419,0,0,0,1.5752-3.78809l8.89306-.99121a2.50359,2.50359,0,0,0,2.21875-2.207,34.26757,34.26757,0,0,0,0-7.77441,2.50369,2.50369,0,0,0-2.2207-2.20606L61.26156,54.119a23.45282,23.45282,0,0,0-1.5752-3.78711l5.59326-6.98047a2.50393,2.50393,0,0,0,.00977-3.1377A34.287,34.287,0,0,0,59.78255,34.70785ZM56.42171,48.64926a2.49568,2.49568,0,0,0-.22509,2.79883,19.834,19.834,0,0,1,1.81,4.34961A2.49267,2.49267,0,0,0,60.14,57.61606l8.74366.97558c.07373.86133.11133,1.73731.11133,2.61328s-.0376,1.751-.11133,2.61231l-8.74463.97558a2.49906,2.49906,0,0,0-2.13233,1.81739,19.85409,19.85409,0,0,1-1.80908,4.35058,2.49608,2.49608,0,0,0,.22363,2.79981l5.501,6.86523a30.60933,30.60933,0,0,1-3.706,3.70606l-6.86426-5.499a2.492,2.492,0,0,0-2.80029-.22558,19.81975,19.81975,0,0,1-4.3501,1.80859,2.5,2.5,0,0,0-1.81836,2.13477l-.97559,8.74316a31.1248,31.1248,0,0,1-5.22558,0l-.97559-8.74121A2.49449,2.49449,0,0,0,33.389,80.41684a19.87057,19.87057,0,0,1-4.3501-1.80957,2.49177,2.49177,0,0,0-2.79932.22461l-6.86621,5.5a30.64462,30.64462,0,0,1-3.70605-3.70606l5.50244-6.86719a2.49674,2.49674,0,0,0,.22314-2.79687,19.83,19.83,0,0,1-1.81005-4.35059,2.49883,2.49883,0,0,0-2.1333-1.81836l-8.74366-.97558c-.07373-.86035-.11133-1.73535-.11133-2.61231s.0376-1.752.11133-2.61328l8.73828-.97558a2.49337,2.49337,0,0,0,2.13868-1.81739,19.8386,19.8386,0,0,1,1.80908-4.34961,2.49814,2.49814,0,0,0-.22315-2.7998l-5.502-6.86524a30.62208,30.62208,0,0,1,3.70654-3.707l6.86573,5.501a2.49487,2.49487,0,0,0,2.79882.22461A19.82428,19.82428,0,0,1,33.38753,41.993a2.49637,2.49637,0,0,0,1.81885-2.13379l.97559-8.74316a30.71529,30.71529,0,0,1,5.22558,0l.97608,8.74511A2.496,2.496,0,0,0,44.20052,41.992a19.83782,19.83782,0,0,1,4.3501,1.81055,2.49838,2.49838,0,0,0,2.79932-.22461l6.86621-5.501a30.68407,30.68407,0,0,1,3.70654,3.70606Zm-17.62695-.74414a13.29981,13.29981,0,1,0,13.2998,13.2998A13.3146,13.3146,0,0,0,38.79476,47.90512Zm0,23a9.7002,9.7002,0,1,1,9.7002-9.7002A9.71128,9.71128,0,0,1,38.79476,70.90512ZM94.90609,22.06625a2.27053,2.27053,0,0,1-1.15088,2.666l-5.26709,2.89941a16.85884,16.85884,0,0,1,.00586,2.35059l5.29785,2.916a2.34147,2.34147,0,0,1,1.12354,2.62207,25.29676,25.29676,0,0,1-2.17627,5.27637,2.33425,2.33425,0,0,1-2.68506,1.083l-5.80127-1.669a17.47393,17.47393,0,0,1-1.6626,1.65137l1.69189,5.82129a2.3063,2.3063,0,0,1-1.07421,2.65527,25.04255,25.04255,0,0,1-5.27442,2.17969,2.10724,2.10724,0,0,1-.63867.09863,2.3105,2.3105,0,0,1-2.02441-1.24316l-2.90284-5.27442a16.855,16.855,0,0,1-3.23095-.07617l.43457-3.57422a13.479,13.479,0,0,0,3.24072-.00976,2.32009,2.32009,0,0,1,2.29687,1.1748l2.82569,5.13477a21.54414,21.54414,0,0,0,2.59717-1.07227l-1.63623-5.6289a2.29906,2.29906,0,0,1,.77246-2.43848,13.87186,13.87186,0,0,0,2.3208-2.30566,2.28973,2.28973,0,0,1,2.49219-.77246l5.58642,1.60644c.19971-.4082.39356-.83594.57324-1.27051.18506-.45117.3501-.88965.49707-1.32031L86.0057,32.7225a2.30163,2.30163,0,0,1-1.16162-2.34668,13.23486,13.23486,0,0,0-.01661-3.18847,2.32629,2.32629,0,0,1,1.16895-2.293l5.14014-2.83008a21.44345,21.44345,0,0,0-1.07227-2.59668l-5.62793,1.63672a2.30229,2.30229,0,0,1-2.44043-.77442,13.85559,13.85559,0,0,0-2.30469-2.31933,2.29183,2.29183,0,0,1-.77343-2.48828l1.60742-5.58985c-.4082-.20019-.83692-.39355-1.27051-.57324-.45068-.18457-.88818-.34961-1.31982-.49609L75.11117,13.994A2.29365,2.29365,0,0,1,72.764,15.15512a13.269,13.269,0,0,0-3.18945.0166,2.31854,2.31854,0,0,1-2.293-1.16992L64.45247,8.86313a21.37887,21.37887,0,0,0-2.59619,1.07226l1.63623,5.62891a2.30066,2.30066,0,0,1-.77,2.43555,13.86168,13.86168,0,0,0-2.32324,2.30761,2.29119,2.29119,0,0,1-2.48388.77637l-5.59522-1.60938c-.19971.40723-.39355.83594-.57373,1.27051-.18408.4502-.34863.8877-.49609,1.31934l5.13183,2.82422a2.3086,2.3086,0,0,1,1.16211,2.34179,13.24861,13.24861,0,0,0,.01563,3.19336l-3.57227.44336a16.98587,16.98587,0,0,1-.09375-3.23828l-5.29834-2.916a2.34135,2.34135,0,0,1-1.12353-2.6211,25.23088,25.23088,0,0,1,2.17675-5.27734,2.33214,2.33214,0,0,1,2.69141-1.08008l5.79443,1.667a17.36792,17.36792,0,0,1,1.66309-1.65136L58.10531,9.92758a2.307,2.307,0,0,1,1.07422-2.6543A24.96029,24.96029,0,0,1,64.45492,5.0936a2.27337,2.27337,0,0,1,2.66357,1.14746l2.90137,5.2705a17.02013,17.02013,0,0,1,2.35107-.00586l2.91553-5.29785a2.33519,2.33519,0,0,1,2.626-1.12207,25.19325,25.19325,0,0,1,5.27148,2.17481A2.32913,2.32913,0,0,1,84.266,9.95l-1.66748,5.79688a17.41589,17.41589,0,0,1,1.65186,1.6621l5.8208-1.6914a2.30508,2.30508,0,0,1,2.65527,1.07422A24.94245,24.94245,0,0,1,94.90609,22.06625ZM68.01839,36.4725a8.29806,8.29806,0,1,0-4.49121-4.49121A8.2522,8.2522,0,0,0,68.01839,36.4725Zm-1.165-9.46484a4.69782,4.69782,0,1,1,0,3.59668A4.6627,4.6627,0,0,1,66.85335,27.00766Z"/><text x="0" y="115" fill="#000000" font-size="5px" font-weight="bold" font-family="'Helvetica Neue', Helvetica, Arial-Unicode, Arial, Sans-serif">Created by Hrbon</text><text x="0" y="120" fill="#000000" font-size="5px" font-weight="bold" font-family="'Helvetica Neue', Helvetica, Arial-Unicode, Arial, Sans-serif">from the Noun Project</text></svg>