<svg xmlns="http://www.w3.org/2000/svg" data-name="Layer 1" viewBox="0 0 88 110" x="0px" y="0px"><title>Safe</title><path d="M68.31,19.12,67,18.86a47,47,0,0,1-10-3,76.06,76.06,0,0,1-9.76-5C45.48,9.84,45,9.62,44,9.63s-1.45.21-3.17,1.26a73.39,73.39,0,0,1-9.79,5,84.28,84.28,0,0,1-13.43,3.89,2.11,2.11,0,0,0-1.68,1.62,1.86,1.86,0,0,0,0,.34h0V47.7C16,54.3,21.2,61.31,29.71,68.54c5.41,4.59,13.12,9.84,14.29,9.84s9-5.24,14.38-9.81C67,61.33,72.12,54.3,72.12,47.66V25.27C72.12,19.94,72.12,19.94,68.31,19.12ZM68,25.25V47.66c0,5.06-4.59,11.3-12.3,17.8a101,101,0,0,1-8.78,6.59c-1,.71-2,1.34-2.89,1.87l0,0,0,0c-.85-.54-1.82-1.17-2.87-1.88a105.53,105.53,0,0,1-8.72-6.6C24.71,58.93,20.09,52.68,20,47.66V23.47a88.72,88.72,0,0,0,12.67-3.82A77.86,77.86,0,0,0,43,14.37a11.59,11.59,0,0,1,1-.61c.35.19.69.39,1,.61a79.87,79.87,0,0,0,10.29,5.28,51.51,51.51,0,0,0,10.88,3.22c.67.12,1,.18,1.23.24C68.32,23.29,68,22.66,68,25.25Z"/><path d="M61.19,32l1.12,1.13a1.57,1.57,0,0,1,0,2.2L41.84,56a1.56,1.56,0,0,1-2.21,0l0,0L28.81,45.1a1.57,1.57,0,0,1,0-2.2l1.12-1.13a1.56,1.56,0,0,1,2.21,0l0,0,8.56,8.67L59,32a1.56,1.56,0,0,1,2.21,0Z"/><text x="0" y="103" fill="#000000" font-size="5px" font-weight="bold" font-family="'Helvetica Neue', Helvetica, Arial-Unicode, Arial, Sans-serif">Created by Fengquan Li</text><text x="0" y="108" fill="#000000" font-size="5px" font-weight="bold" font-family="'Helvetica Neue', Helvetica, Arial-Unicode, Arial, Sans-serif">from the Noun Project</text></svg>